<?xml version="1.0" encoding="utf-8"?>
<!-- Generator: Adobe Illustrator 16.0.4, SVG Export Plug-In . SVG Version: 6.00 Build 0)  -->
<!DOCTYPE svg PUBLIC "-//W3C//DTD SVG 1.1//EN" "http://www.w3.org/Graphics/SVG/1.1/DTD/svg11.dtd">
<svg version="1.1" id="Layer_1" xmlns="http://www.w3.org/2000/svg" xmlns:xlink="http://www.w3.org/1999/xlink" x="0px" y="0px"
	 width="253px" height="54px" viewBox="0 0 253 54" enable-background="new 0 0 253 54" xml:space="preserve">
<g id="Layer_2_1_">
	<path fill="#FFFFFF" d="M70.524,36.652c-2.267,0-2.562,1.865-2.562,4.34c0,2.474,0.294,4.363,2.562,4.363
		c2.27,0,2.559-1.892,2.559-4.363C73.083,38.518,72.793,36.652,70.524,36.652 M75.325,47.395c-0.843,0.845-2.21,1.369-3.695,1.369
		c-1.542,0-2.68-0.406-3.667-1.513v6.899h-3.787V33.426h3.672v1.424c1.045-1.162,2.18-1.6,3.783-1.6c1.484,0,2.852,0.521,3.695,1.37
		c1.517,1.509,1.546,4.101,1.546,6.372C76.871,43.261,76.842,45.882,75.325,47.395"/>
	<path fill="#FFFFFF" d="M87.792,37.963c-0.407-0.902-1.253-1.57-2.532-1.57c-1.282,0-2.124,0.668-2.536,1.57
		c-0.233,0.553-0.318,0.96-0.343,1.627h5.761C88.115,38.924,88.023,38.516,87.792,37.963 M82.381,42.184
		c0,1.951,1.191,3.381,3.315,3.381c1.659,0,2.474-0.469,3.437-1.43l2.297,2.243c-1.539,1.544-3.027,2.388-5.764,2.388
		c-3.578,0-7.015-1.631-7.015-7.771c0-4.947,2.677-7.743,6.609-7.743c4.22,0,6.607,3.086,6.607,7.246v1.688L82.381,42.184
		L82.381,42.184z"/>
	<path fill="#FFFFFF" d="M102.352,37.325c-0.435-0.439-1.018-0.673-1.773-0.673c-0.76,0-1.312,0.233-1.75,0.673
		c-0.782,0.786-0.872,2.093-0.872,3.668c0,1.569,0.09,2.909,0.872,3.694c0.438,0.441,0.99,0.67,1.75,0.67
		c0.757,0,1.338-0.229,1.773-0.67c0.787-0.785,0.874-2.125,0.874-3.694C103.226,39.418,103.138,38.109,102.352,37.325 M105.293,46.9
		c-0.931,0.986-2.472,1.863-4.715,1.863c-2.246,0-3.755-0.877-4.689-1.863c-1.369-1.428-1.719-3.146-1.719-5.907
		c0-2.736,0.35-4.458,1.719-5.878c0.934-0.995,2.444-1.865,4.689-1.865c2.243,0,3.784,0.87,4.715,1.865
		c1.368,1.42,1.719,3.142,1.719,5.878C107.013,43.755,106.661,45.473,105.293,46.9"/>
	<path fill="#FFFFFF" d="M115.865,36.652c-2.271,0-2.558,1.865-2.558,4.34c0,2.474,0.286,4.363,2.558,4.363
		c2.27,0,2.562-1.892,2.562-4.363C118.427,38.518,118.135,36.652,115.865,36.652 M120.67,47.395
		c-0.844,0.845-2.213,1.369-3.698,1.369c-1.542,0-2.677-0.406-3.665-1.513v6.899h-3.79V33.426h3.671v1.424
		c1.047-1.162,2.181-1.6,3.784-1.6c1.485,0,2.855,0.521,3.698,1.37c1.514,1.509,1.542,4.101,1.542,6.372
		C122.213,43.261,122.184,45.882,120.67,47.395"/>
	<path fill="#FFFFFF" d="M128.939,48.59c-3.113,0-4.421-2.186-4.421-4.337v-16.39h3.787v16.154c0,0.905,0.375,1.373,1.338,1.373
		h1.453v3.198L128.939,48.59L128.939,48.59z"/>
	<path fill="#FFFFFF" d="M141.348,37.963c-0.408-0.902-1.25-1.57-2.533-1.57c-1.281,0-2.123,0.668-2.53,1.57
		c-0.239,0.553-0.323,0.96-0.353,1.627h5.764C141.665,38.924,141.574,38.516,141.348,37.963 M135.932,42.184
		c0,1.951,1.194,3.381,3.314,3.381c1.663,0,2.479-0.469,3.438-1.43l2.303,2.243c-1.547,1.544-3.028,2.388-5.764,2.388
		c-3.584,0-7.018-1.631-7.018-7.771c0-4.947,2.676-7.743,6.609-7.743c4.221,0,6.605,3.086,6.605,7.246v1.688L135.932,42.184
		L135.932,42.184z"/>
	<path fill="#8B8A8D" d="M152.271,38.957v9.633h-3.074v-9.633h-1.279v-2.346h1.279v-1.538c0-1.753,1.088-3.528,3.598-3.528h1.75
		v2.604h-1.206c-0.731,0-1.067,0.402-1.067,1.115v1.35h2.273v2.345L152.271,38.957L152.271,38.957z"/>
	<path fill="#8B8A8D" d="M161.999,39.428c-0.356-0.352-0.827-0.546-1.438-0.546c-0.619,0-1.069,0.194-1.428,0.546
		c-0.639,0.641-0.708,1.704-0.708,2.982c0,1.273,0.07,2.367,0.708,3.007c0.357,0.356,0.809,0.543,1.428,0.543
		c0.611,0,1.082-0.187,1.438-0.543c0.642-0.64,0.711-1.729,0.711-3.007S162.641,40.068,161.999,39.428 M164.389,47.214
		c-0.755,0.808-2.009,1.517-3.828,1.517c-1.821,0-3.06-0.709-3.814-1.517c-1.114-1.155-1.396-2.555-1.396-4.804
		c0-2.227,0.282-3.618,1.396-4.781c0.756-0.802,1.992-1.515,3.814-1.515c1.819,0,3.073,0.713,3.828,1.515
		c1.114,1.162,1.4,2.555,1.4,4.781C165.789,44.659,165.503,46.059,164.389,47.214"/>
	<path fill="#8B8A8D" d="M174.518,39.619c-0.477-0.475-0.873-0.733-1.634-0.733c-0.944,0-1.987,0.71-1.987,2.271v7.436h-3.078
		V36.258h3.008v1.184c0.59-0.709,1.773-1.325,3.101-1.325c1.208,0,2.06,0.307,2.91,1.159L174.518,39.619z"/>
	<path fill="#FFFFFF" d="M185.424,36.652c-2.271,0-2.561,1.865-2.561,4.34c0,2.474,0.289,4.363,2.561,4.363
		c2.274,0,2.562-1.892,2.562-4.363C187.986,38.518,187.699,36.652,185.424,36.652 M190.229,47.395
		c-0.84,0.845-2.211,1.369-3.695,1.369c-1.602,0-2.734-0.437-3.784-1.603v1.428h-3.669V27.863h3.784v6.898
		c0.991-1.106,2.127-1.513,3.669-1.513c1.484,0,2.855,0.522,3.695,1.37c1.518,1.51,1.547,4.102,1.547,6.373
		C191.775,43.261,191.745,45.882,190.229,47.395"/>
	<path fill="#FFFFFF" d="M195.346,33.423h3.784V48.59h-3.784V33.423z M195.287,27.746h3.875v3.088h-3.875V27.746z"/>
	<polygon fill="#FFFFFF" points="212.436,48.59 208.71,42.271 207.109,44.08 207.109,48.59 203.324,48.59 203.324,27.863 
		207.109,27.863 207.109,39.624 212.146,33.425 216.716,33.425 211.301,39.538 217.123,48.59 	"/>
	<path fill="#FFFFFF" d="M227.299,37.963c-0.41-0.902-1.25-1.57-2.531-1.57c-1.283,0-2.129,0.668-2.533,1.57
		c-0.233,0.553-0.325,0.96-0.352,1.627h5.768C227.617,38.924,227.531,38.516,227.299,37.963 M221.883,42.184
		c0,1.951,1.195,3.381,3.321,3.381c1.659,0,2.472-0.469,3.435-1.43l2.301,2.243c-1.543,1.544-3.03,2.388-5.766,2.388
		c-3.581,0-7.018-1.631-7.018-7.771c0-4.947,2.678-7.743,6.611-7.743c4.221,0,6.608,3.086,6.608,7.246v1.688L221.883,42.184
		L221.883,42.184z"/>
	<path fill="#FFFFFF" d="M240.046,48.766c-2.387,0-4.543-0.264-6.464-2.183l2.477-2.478c1.254,1.252,2.881,1.43,4.047,1.43
		c1.312,0,2.678-0.438,2.678-1.571c0-0.764-0.406-1.28-1.6-1.399l-2.39-0.231c-2.733-0.263-4.428-1.457-4.428-4.248
		c0-3.146,2.771-4.834,5.854-4.834c2.356,0,4.34,0.406,5.793,1.772l-2.328,2.359c-0.873-0.785-2.213-1.018-3.522-1.018
		c-1.513,0-2.156,0.695-2.156,1.451c0,0.555,0.233,1.194,1.574,1.311l2.387,0.232c2.997,0.291,4.513,1.893,4.513,4.457
		C246.479,47.163,243.625,48.766,240.046,48.766"/>
	<polygon fill="#8B8A8D" points="249.086,32.291 249.086,34.678 248.669,34.678 248.669,32.291 247.908,32.291 247.908,31.914 
		249.845,31.914 249.845,32.291 	"/>
	<polygon fill="#8B8A8D" points="252.332,34.676 252.332,32.83 251.695,34.174 251.389,34.174 250.738,32.83 250.738,34.676 
		250.318,34.676 250.318,31.916 250.738,31.916 251.541,33.63 252.332,31.916 252.75,31.916 252.75,34.676 	"/>
	<path fill="#FFFFFF" d="M5.722,54.15c-3.292,0-5.972-2.678-5.972-5.971V6.122c0-3.292,2.68-5.971,5.972-5.971h39.793
		c3.292,0,5.97,2.678,5.97,5.971v42.06c0,3.291-2.677,5.969-5.97,5.969H5.722L5.722,54.15z"/>
	<path fill="#E12826" d="M34.403,44.214c-2.299,2.16-5.388,3.487-8.784,3.487c-3.397,0-6.488-1.326-8.787-3.487l-0.12-0.11
		l1.402-1.405l0.113,0.106c1.942,1.809,4.537,2.918,7.391,2.918s5.447-1.109,7.39-2.918l0.113-0.106l1.408,1.405L34.403,44.214z
		 M1.669,38.462v9.72c0,2.238,1.812,4.051,4.052,4.051h39.793c2.238,0,4.054-1.812,4.054-4.051v-9.72H1.669z"/>
	<path fill="#2BACE2" d="M49.571,6.122c0-2.239-1.818-4.056-4.056-4.056H5.722c-2.239,0-4.051,1.816-4.051,4.056v30.334h10.081
		c-2.54-1.113-4.31-3.647-4.314-6.597c0.003-3.979,3.229-7.208,7.206-7.208c1.215,0,2.35,0.298,3.357,0.828l2.121-3.421
		l-0.644-1.947c-0.473-0.104-0.746,0.006-1.484-0.105c-0.76-0.114-0.837-0.305-0.685-0.725c0.15-0.419,0.987-0.228,1.708-0.151
		c0.724,0.077,2.122-0.2,2.777-0.227c0.908-0.041,1.21,0.835,1.21,0.835s-0.494,0.073-0.987,0.073c-0.487,0-0.568,0-1.062,0.194
		c-0.125,0.046-0.252,0.083-0.379,0.111l0.483,1.471h11.072l-1.039-2.853h3.874c1.045,0.012,1.882,0.865,1.882,1.91
		c0,1.058-0.854,1.914-1.911,1.914H34.81V19.54h0.125c0.495-0.002,0.894-0.401,0.894-0.896c0-0.492-0.395-0.887-0.876-0.896H32.57
		l1.875,5.163c0.614-0.169,1.259-0.261,1.93-0.261c3.978,0,7.205,3.229,7.205,7.208c0,2.945-1.771,5.481-4.308,6.597H49.57
		L49.571,6.122L49.571,6.122z"/>
	<path fill="#2BACE2" d="M29.167,29.859c0-2.949,1.765-5.477,4.302-6.596l-0.727-1.983l-8.265,8.735
		c-0.22,0.224-0.522,0.362-0.853,0.362h-1.789c-0.196,2.728-1.904,5.026-4.289,6.075h15.932
		C30.939,35.343,29.167,32.809,29.167,29.859"/>
	<path fill="#2BACE2" d="M18.097,25.291l-2.512,4.043c0,0,0.006,0.003,0.006,0.005h4.757c-0.125-1.377-0.734-2.606-1.653-3.526
		C18.509,25.623,18.312,25.453,18.097,25.291"/>
	<path fill="#2BACE2" d="M18.884,24.03c1.669,1.213,2.797,3.127,2.952,5.311h1.351l-2.64-7.992L18.884,24.03z"/>
	<path fill="#2BACE2" d="M14.603,30.973c-0.617,0-1.115-0.496-1.115-1.111s0.499-1.117,1.115-1.117c0.037,0,0.078,0.005,0.118,0.009
		l2.49-4.008c-0.769-0.393-1.636-0.609-2.568-0.609c-1.579,0.003-3.005,0.635-4.047,1.673c-1.037,1.042-1.674,2.468-1.674,4.052
		c0,1.582,0.638,3.005,1.674,4.045c1.042,1.039,2.469,1.677,4.047,1.677c1.584,0,3.013-0.638,4.052-1.677
		c0.923-0.92,1.529-2.149,1.651-3.526h-4.757C15.403,30.736,15.032,30.973,14.603,30.973"/>
	<path fill="#2BACE2" d="M40.421,25.809c-1.039-1.034-2.466-1.675-4.049-1.677c-0.487,0-0.96,0.065-1.418,0.18l1.621,4.449
		c0.534,0.082,0.944,0.539,0.944,1.101c0,0.615-0.501,1.115-1.118,1.115c-0.614,0-1.116-0.5-1.116-1.115
		c0-0.293,0.115-0.561,0.302-0.767l-1.614-4.433c-0.61,0.283-1.172,0.673-1.649,1.147c-1.037,1.042-1.676,2.468-1.676,4.05
		c0,1.584,0.64,3.006,1.676,4.048c1.039,1.038,2.464,1.674,4.048,1.674c1.583,0,3.011-0.636,4.049-1.674
		c1.036-1.042,1.674-2.464,1.674-4.048C42.096,28.277,41.457,26.851,40.421,25.809"/>
	<polygon fill="#2BACE2" points="24.147,28.938 24.148,28.951 31.916,20.627 21.405,20.627 	"/>
</g>
</svg>
