<?xml version="1.0" encoding="utf-8"?>
<!-- Generator: Adobe Illustrator 16.0.4, SVG Export Plug-In . SVG Version: 6.00 Build 0)  -->
<!DOCTYPE svg PUBLIC "-//W3C//DTD SVG 1.1//EN" "http://www.w3.org/Graphics/SVG/1.1/DTD/svg11.dtd">
<svg version="1.1" id="Layer_1" xmlns="http://www.w3.org/2000/svg" xmlns:xlink="http://www.w3.org/1999/xlink" x="0px" y="0px"
	 width="176.571px" height="184.302px" viewBox="0 0 176.571 184.302" enable-background="new 0 0 176.571 184.302"
	 xml:space="preserve">
<path fill="#FFFFFF" d="M20.383,184.302C9.147,184.302,0,175.163,0,163.924V20.38C0,9.144,9.147,0,20.383,0h135.816
	c11.232,0,20.372,9.141,20.372,20.38v143.551c0,11.231-9.133,20.371-20.372,20.371H20.383L20.383,184.302z"/>
<path fill="#E12826" d="M118.27,150.388c-7.846,7.373-18.385,11.902-29.978,11.902c-11.594,0-22.145-4.526-29.991-11.902
	l-0.41-0.376l4.786-4.797l0.385,0.363c6.628,6.173,15.485,9.959,25.227,9.959c9.742,0,18.588-3.786,25.221-9.959l0.387-0.363
	l4.807,4.797L118.27,150.388z M6.549,130.757v33.174c0,7.639,6.184,13.825,13.831,13.825h135.812c7.64,0,13.84-6.187,13.84-13.825
	v-33.174H6.549z"/>
<path fill="#2BACE2" d="M170.038,20.38c0-7.643-6.203-13.844-13.839-13.844H20.383c-7.643,0-13.827,6.198-13.827,13.844v103.531
	h34.407c-8.669-3.8-14.71-12.448-14.724-22.515c0.01-13.579,11.021-24.6,24.595-24.6c4.146,0,8.021,1.019,11.457,2.827l7.239-11.676
	l-2.198-6.646c-1.615-0.355-2.546,0.021-5.064-0.358c-2.595-0.388-2.856-1.04-2.338-2.473c0.512-1.432,3.368-0.778,5.829-0.517
	c2.472,0.263,7.243-0.682,9.478-0.775c3.1-0.14,4.13,2.852,4.13,2.852s-1.687,0.248-3.368,0.248c-1.663,0-1.938,0-3.625,0.662
	c-0.427,0.156-0.86,0.283-1.293,0.38l1.648,5.02h37.788l-3.546-9.737h13.222c3.566,0.042,6.423,2.953,6.423,6.519
	c0,3.611-2.913,6.533-6.52,6.533h-0.433v-3.478h0.426c1.688-0.006,3.051-1.368,3.051-3.058c0-1.68-1.351-3.028-2.99-3.058h-8.133
	l6.399,17.622c2.093-0.577,4.296-0.892,6.586-0.892c13.579,0,24.592,11.021,24.592,24.599c0,10.053-6.046,18.709-14.706,22.515
	h35.15V20.38L170.038,20.38z"/>
<path fill="#2BACE2" d="M100.401,101.396c0-10.065,6.022-18.691,14.682-22.513l-2.479-6.768l-28.209,29.814
	c-0.751,0.764-1.782,1.237-2.912,1.237h-6.106c-0.668,9.309-6.498,17.154-14.639,20.734h54.378
	C106.45,120.111,100.401,111.462,100.401,101.396"/>
<path fill="#2BACE2" d="M62.619,85.804l-8.574,13.799c0,0,0.021,0.01,0.021,0.017h16.236c-0.427-4.699-2.505-8.894-5.643-12.034
	C64.024,86.938,63.353,86.357,62.619,85.804"/>
<path fill="#2BACE2" d="M65.304,81.501c5.698,4.14,9.547,10.672,10.076,18.125h4.611L70.98,72.35L65.304,81.501z"/>
<path fill="#2BACE2" d="M50.693,105.196c-2.106,0-3.806-1.693-3.806-3.793s1.703-3.812,3.806-3.812c0.127,0,0.267,0.017,0.403,0.029
	l8.498-13.679c-2.625-1.341-5.583-2.08-8.765-2.08c-5.389,0.012-10.255,2.168-13.812,5.711c-3.54,3.557-5.715,8.424-5.715,13.831
	c0,5.399,2.178,10.256,5.715,13.806c3.556,3.546,8.426,5.723,13.812,5.723c5.406,0,10.284-2.177,13.829-5.723
	c3.151-3.14,5.22-7.336,5.636-12.036H54.059C53.424,104.389,52.159,105.196,50.693,105.196"/>
<path fill="#2BACE2" d="M138.812,87.572c-3.547-3.53-8.416-5.718-13.819-5.724c-1.663,0-3.276,0.223-4.84,0.615l5.533,15.184
	c1.823,0.279,3.223,1.84,3.223,3.756c0,2.1-1.713,3.807-3.819,3.807c-2.094,0-3.807-1.707-3.807-3.807c0-1,0.394-1.913,1.03-2.616
	l-5.51-15.129c-2.079,0.965-3.999,2.296-5.626,3.915c-3.54,3.557-5.72,8.424-5.72,13.824c0,5.406,2.184,10.259,5.72,13.815
	c3.547,3.543,8.409,5.713,13.815,5.713c5.403,0,10.276-2.17,13.819-5.713c3.536-3.557,5.716-8.409,5.716-13.815
	C144.527,95.997,142.348,91.129,138.812,87.572"/>
<polygon fill="#2BACE2" points="83.268,98.25 83.271,98.296 109.783,69.886 73.908,69.886 "/>
</svg>
